<svg width="49" height="48" viewBox="0 0 49 48" fill="none" xmlns="http://www.w3.org/2000/svg">
<rect x="2" y="2" width="45" height="44" rx="14" fill="#2679E4"/>
<rect x="2" y="2" width="45" height="44" rx="14" stroke="#184086" stroke-width="4"/>
<path d="M31.5 29H17.5C16.397 29 15.5 29.897 15.5 31C15.5 32.103 16.397 33 17.5 33H31.5C32.603 33 33.5 32.103 33.5 31C33.5 29.897 32.603 29 31.5 29ZM31.5 22H17.5C16.397 22 15.5 22.897 15.5 24C15.5 25.103 16.397 26 17.5 26H31.5C32.603 26 33.5 25.103 33.5 24C33.5 22.897 32.603 22 31.5 22ZM31.5 15H17.5C16.397 15 15.5 15.897 15.5 17C15.5 18.103 16.397 19 17.5 19H31.5C32.603 19 33.5 18.103 33.5 17C33.5 15.897 32.603 15 31.5 15Z" fill="#FCFCFC"/>
</svg>
