<svg width="68" height="57" viewBox="0 0 68 57" fill="none" xmlns="http://www.w3.org/2000/svg">
<rect x="2" y="2.90625" width="64" height="52" rx="14" fill="#EE2121"/>
<rect x="2" y="2.90625" width="64" height="52" rx="14" stroke="#BE1717" stroke-width="4"/>
<path d="M41 29.4062C41 30.5108 40.1046 31.4062 39 31.4062H28C26.8954 31.4062 26 30.5108 26 29.4062V29.4062C26 28.3017 26.8954 27.4062 28 27.4062H39C40.1046 27.4062 41 28.3017 41 29.4062V29.4062Z" fill="#FCFCFC"/>
<path d="M33.5 21.9063C34.6046 21.9063 35.5 22.8017 35.5 23.9063V34.9063C35.5 36.0108 34.6046 36.9062 33.5 36.9062V36.9062C32.3954 36.9062 31.5 36.0108 31.5 34.9062V23.9063C31.5 22.8017 32.3954 21.9063 33.5 21.9063V21.9063Z" fill="#FCFCFC"/>
</svg>
