<svg width="337" height="337" viewBox="0 0 337 337" fill="none" xmlns="http://www.w3.org/2000/svg">
<path d="M326.648 226.292C311.188 268.626 280.228 302.365 239.489 321.31C215.031 332.679 187.943 338.039 161.128 336.829C97.9633 333.977 42.2129 296.709 15.6373 239.543C-0.580092 204.644 -4.3309 164.848 5.07604 127.501C14.355 90.6997 35.917 57.7852 65.7983 34.8491C75.5418 27.3656 86.1782 20.9223 97.4056 15.7098C108.76 10.4264 120.657 6.41413 132.773 3.80094C140.742 2.0653 148.828 0.933194 156.965 0.3769C156.993 0.378291 157.039 0.361588 157.074 0.362979C158.663 0.265628 160.256 0.180875 161.863 0.116901C166.478 -0.0597225 171.134 -0.0333419 175.767 0.176659C180.905 0.407521 185.989 0.866503 191.015 1.55492C192.732 1.77187 194.43 2.03465 196.142 2.32948L196.254 2.33373C250.807 11.443 297.584 46.5772 321.254 97.4781C340.2 138.218 342.112 183.972 326.648 226.292Z" fill="#BE1717"/>
<path d="M316.675 99.5526C290.885 44.0705 236.767 7.87667 175.45 5.10771C161.433 4.47493 147.394 5.66119 133.722 8.62207C121.968 11.1741 110.415 15.064 99.4044 20.1777C88.4926 25.2497 78.1734 31.508 68.7178 38.7579C8.48918 85.011 -11.9796 168.576 20.0337 237.459C45.8207 292.937 99.9384 329.117 161.259 331.886C187.274 333.075 213.564 327.863 237.314 316.833C276.859 298.438 306.905 265.687 321.914 224.595C336.937 183.507 335.072 139.095 316.675 99.5526ZM296.205 176.61C295.857 181.854 295.178 187.066 294.202 192.28C294.159 192.537 294.12 192.769 294.06 193.011L293.865 193.928C293.107 197.656 292.205 201.316 291.116 204.936V204.951C290.676 206.458 290.211 207.948 289.714 209.421C287.323 216.515 284.318 223.38 280.72 229.954C280.606 230.18 280.489 230.39 280.37 230.618L280.267 230.767C280.151 231.005 280.033 231.234 279.863 231.488C279.114 232.842 278.313 234.179 277.53 235.5C276.698 236.835 275.865 238.138 275.006 239.443C269.681 247.466 263.474 254.863 256.478 261.472C256.388 261.558 256.31 261.647 256.225 261.721L254.985 262.899C254.327 263.486 253.686 264.059 253.028 264.63C245.817 270.98 237.919 276.483 229.398 281.095C228.042 281.82 226.654 282.558 225.249 283.234C224.508 283.604 223.799 283.954 223.059 284.292C222.836 284.406 222.586 284.518 222.35 284.616C222.116 284.73 221.866 284.856 221.529 284.995C213.991 288.446 206.161 291.161 198.165 293.069C196.649 293.448 195.141 293.765 193.617 294.066C190.67 294.67 187.694 295.169 184.7 295.543L183.797 295.674C183.485 295.703 183.209 295.738 182.947 295.773C176.981 296.443 170.955 296.713 164.901 296.532C163.346 296.492 161.796 296.422 160.239 296.333C155.012 295.993 149.8 295.34 144.649 294.352L144.464 294.314C144.25 294.288 144.054 294.245 143.719 294.185C143.474 294.129 143.211 294.086 142.89 294.008C139.195 293.257 135.519 292.35 131.9 291.263C130.409 290.827 128.917 290.374 127.447 289.844C120.37 287.473 113.49 284.451 106.855 280.821C106.643 280.704 106.418 280.586 106.102 280.416C105.891 280.298 105.679 280.198 105.364 279.999C104.01 279.227 102.688 278.461 101.369 277.645C100.047 276.844 98.7312 275.998 97.4462 275.14C89.4369 269.829 82.0354 263.636 75.3682 256.611C75.2806 256.501 75.193 256.421 75.104 256.323L74.577 255.759L73.972 255.099C73.3851 254.439 72.7954 253.798 72.2405 253.14C65.8724 245.946 60.3734 238.034 55.7617 229.529C55.0371 228.173 54.3111 226.783 53.6046 225.379C53.2514 224.653 52.912 223.944 52.5769 223.221C52.4656 222.969 52.3377 222.715 52.2237 222.48L51.8621 221.663C48.4089 214.121 45.7081 206.303 43.7708 198.324C43.4231 196.814 43.0921 195.287 42.7931 193.747C42.1825 190.79 41.6875 187.807 41.2967 184.814L41.0824 183.079C40.3954 177.081 40.1451 171.071 40.3217 165.067C40.3481 163.51 40.4191 161.94 40.5151 160.389C40.8627 155.192 41.4955 150.011 42.4676 144.873L42.6874 143.836C42.7277 143.608 42.7666 143.362 42.8445 143.041C43.5844 139.329 44.505 135.653 45.5731 132.047C46.0126 130.541 46.4827 129.052 46.9958 127.579C49.3796 120.487 52.4086 113.592 56.0523 106.942C56.14 106.745 56.254 106.549 56.3708 106.356L56.4528 106.203C56.5724 105.978 56.6921 105.768 56.8576 105.498C57.6099 104.161 58.379 102.837 59.194 101.519C59.9978 100.184 60.856 98.8627 61.7015 97.561C67.0447 89.5226 73.2515 82.1405 80.2441 75.5345C80.2928 75.4566 80.3402 75.4289 80.4013 75.3719L81.0647 74.7391C81.3373 74.486 81.5946 74.2689 81.7601 74.0895C82.3859 73.5193 83.0424 72.945 83.6863 72.3595C90.8805 66.0066 98.7896 60.5202 107.322 55.9252C108.683 55.17 110.074 54.4454 111.476 53.7695C112.199 53.4163 112.925 53.0478 113.652 52.7084C113.872 52.5958 114.092 52.4984 114.377 52.3732C114.597 52.2592 114.847 52.1479 115.198 51.995C122.735 48.5432 130.554 45.8256 138.548 43.9203C140.06 43.5434 141.57 43.2083 143.093 42.9232C146.052 42.2987 149.051 41.8203 152.058 41.4462L153.775 41.2292C159.727 40.5589 165.768 40.2919 171.791 40.456C173.346 40.4797 174.899 40.5492 176.453 40.6508C181.697 40.9804 186.908 41.6465 192.016 42.6019L193.068 42.8203C193.239 42.8426 193.404 42.8801 193.575 42.919L193.817 42.9761C197.543 43.7451 201.202 44.6519 204.826 45.7395C206.316 46.1622 207.794 46.6295 209.264 47.1427C216.36 49.5125 223.254 52.5374 229.905 56.17L230.626 56.5552C230.802 56.6734 230.986 56.7735 231.196 56.8917L231.348 56.9891C232.712 57.761 234.037 58.5314 235.357 59.345C236.696 60.1433 238.012 60.9902 239.315 61.8511C247.309 67.1609 254.677 73.3511 261.344 80.3757C261.433 80.4717 261.521 80.5509 261.606 80.6483L262.757 81.8721C263.361 82.5327 263.931 83.1599 264.501 83.8317C270.836 91.0412 276.37 98.9532 280.948 107.471C281.706 108.83 282.402 110.22 283.107 111.609C283.457 112.332 283.815 113.043 284.15 113.766C284.261 114.004 284.389 114.257 284.531 114.585C284.628 114.791 284.728 115.009 284.867 115.326C288.321 122.865 291.019 130.681 292.941 138.678C293.299 140.19 293.651 141.717 293.95 143.258C294.543 146.213 295.056 149.198 295.429 152.204L295.64 153.911C296.33 159.908 296.577 165.917 296.419 171.938C296.363 173.49 296.291 175.058 296.205 176.61Z" fill="#EE2121"/>
<path d="M175.492 22.3988C167.763 22.0492 159.951 22.3228 152.281 23.2074L150.288 23.446C135.71 25.3187 121.51 29.3877 108.067 35.5451C107.765 35.6713 107.542 35.7761 107.323 35.8749L106.286 36.3675C92.8524 42.7103 80.5938 50.9395 69.7776 60.8513C69.5557 61.0702 69.2882 61.3194 69.0024 61.5732L68.2667 62.2679C57.5873 72.3378 48.4872 83.9718 41.2566 96.8156C41.0514 97.1758 40.9085 97.4205 40.7778 97.6683C40.5817 98.0057 40.4358 98.2733 40.3021 98.5377C33.2083 111.517 28.1391 125.388 25.2147 139.816C25.1311 140.172 25.0688 140.479 25.0125 140.784L24.8013 141.863C22.0684 156.311 21.5287 171.074 23.2038 185.669L23.3194 186.698C23.3558 187.016 23.3999 187.332 23.447 187.662C25.3211 202.243 29.3886 216.44 35.5385 229.882L36.3729 231.682C42.7127 245.097 50.9419 257.359 60.8659 268.168L62.2294 269.635C72.3433 280.358 83.9757 289.454 96.8181 296.689C97.1342 296.879 97.4033 297.025 97.6738 297.169C98.0219 297.373 98.291 297.516 98.5585 297.657C111.512 304.738 125.382 309.806 139.817 312.744L140.022 312.785C140.265 312.832 140.514 312.884 140.756 312.928C141.141 313.004 141.422 313.063 141.7 313.105C156.351 315.886 171.141 316.418 185.682 314.754C186.012 314.713 186.324 314.672 186.635 314.641L187.686 314.504C202.239 312.635 216.435 308.569 229.882 302.414C230.236 302.261 230.526 302.127 230.809 301.993C231.102 301.861 231.397 301.72 231.688 301.578C245.108 295.237 257.366 287.006 268.175 277.089L269.631 275.728C280.345 265.643 289.441 254.011 296.7 241.132C296.863 240.848 297.015 240.571 297.168 240.293C297.351 239.975 297.463 239.767 297.576 239.565L297.7 239.337C304.735 226.458 309.798 212.585 312.741 198.127L312.952 197.099C312.999 196.83 313.064 196.514 313.112 196.189C315.875 181.652 316.428 166.9 314.75 152.278L314.507 150.261C312.636 135.713 308.565 121.515 302.412 108.062L301.855 106.831C301.771 106.653 301.686 106.475 301.596 106.299C295.238 92.8394 287.001 80.5761 277.088 69.7721L275.752 68.3342C265.598 57.5788 253.969 48.4832 241.133 41.2587C240.817 41.0687 240.539 40.9137 240.262 40.7601L240.06 40.6492C239.842 40.5306 239.637 40.4121 239.418 40.3027C226.413 33.1998 212.542 28.1383 198.129 25.2138C197.806 25.1363 197.61 25.0967 197.407 25.0572L196.125 24.805C189.336 23.5221 182.393 22.7089 175.492 22.3988Z" fill="#BE1717"/>
<path d="M316.675 99.5526C290.885 44.0705 236.767 7.87667 175.45 5.10771C161.433 4.47493 147.394 5.66119 133.722 8.62207C121.968 11.1741 110.415 15.064 99.4044 20.1777C88.4926 25.2497 78.1734 31.508 68.7178 38.7579C8.48918 85.011 -11.9796 168.576 20.0337 237.459C45.8207 292.937 99.9384 329.117 161.259 331.886C187.274 333.075 213.564 327.863 237.314 316.833C276.859 298.438 306.905 265.687 321.914 224.595C336.937 183.507 335.072 139.095 316.675 99.5526ZM296.205 176.61C295.857 181.854 295.178 187.066 294.202 192.28C294.159 192.537 294.12 192.769 294.06 193.011L293.865 193.928C293.107 197.656 292.205 201.316 291.116 204.936V204.951C290.676 206.458 290.211 207.948 289.714 209.421C287.323 216.515 284.318 223.38 280.72 229.954C280.606 230.18 280.489 230.39 280.37 230.618L280.267 230.767C280.151 231.005 280.033 231.234 279.863 231.488C279.114 232.842 278.313 234.179 277.53 235.5C276.698 236.835 275.865 238.138 275.006 239.443C269.681 247.466 263.474 254.863 256.478 261.472C256.388 261.558 256.31 261.647 256.225 261.721L254.985 262.899C254.327 263.486 253.686 264.059 253.028 264.63C245.817 270.98 237.919 276.483 229.398 281.095C228.042 281.82 226.654 282.558 225.249 283.234C224.508 283.604 223.799 283.954 223.059 284.292C222.836 284.406 222.586 284.518 222.35 284.616C222.116 284.73 221.866 284.856 221.529 284.995C213.991 288.446 206.161 291.161 198.165 293.069C196.649 293.448 195.141 293.765 193.617 294.066C190.67 294.67 187.694 295.169 184.7 295.543L183.797 295.674C183.485 295.703 183.209 295.738 182.947 295.773C176.981 296.443 170.955 296.713 164.901 296.532C163.346 296.492 161.796 296.422 160.239 296.333C155.012 295.993 149.8 295.34 144.649 294.352L144.464 294.314C144.25 294.288 144.054 294.245 143.719 294.185C143.474 294.129 143.211 294.086 142.89 294.008C139.195 293.257 135.519 292.35 131.9 291.263C130.409 290.827 128.917 290.374 127.447 289.844C120.37 287.473 113.49 284.451 106.855 280.821C106.643 280.704 106.418 280.586 106.102 280.416C105.891 280.298 105.679 280.198 105.364 279.999C104.01 279.227 102.688 278.461 101.369 277.645C100.047 276.844 98.7312 275.998 97.4462 275.14C89.4369 269.829 82.0354 263.636 75.3682 256.611C75.2806 256.501 75.193 256.421 75.104 256.323L74.577 255.759L73.972 255.099C73.3851 254.439 72.7954 253.798 72.2405 253.14C65.8724 245.946 60.3734 238.034 55.7617 229.529C55.0371 228.173 54.3111 226.783 53.6046 225.379C53.2514 224.653 52.912 223.944 52.5769 223.221C52.4656 222.969 52.3377 222.715 52.2237 222.48L51.8621 221.663C48.4089 214.121 45.7081 206.303 43.7708 198.324C43.4231 196.814 43.0921 195.287 42.7931 193.747C42.1825 190.79 41.6875 187.807 41.2967 184.814L41.0824 183.079C40.3954 177.081 40.1451 171.071 40.3217 165.067C40.3481 163.51 40.4191 161.94 40.5151 160.389C40.8627 155.192 41.4955 150.011 42.4676 144.873L42.6874 143.836C42.7277 143.608 42.7666 143.362 42.8445 143.041C43.5844 139.329 44.505 135.653 45.5731 132.047C46.0126 130.541 46.4827 129.052 46.9958 127.579C49.3796 120.487 52.4086 113.592 56.0523 106.942C56.14 106.745 56.254 106.549 56.3708 106.356L56.4528 106.203C56.5724 105.978 56.6921 105.768 56.8576 105.498C57.6099 104.161 58.379 102.837 59.194 101.519C59.9978 100.184 60.856 98.8627 61.7015 97.561C67.0447 89.5226 73.2515 82.1405 80.2441 75.5345C80.2928 75.4566 80.3402 75.4289 80.4013 75.3719L81.0647 74.7391C81.3373 74.486 81.5946 74.2689 81.7601 74.0895C82.3859 73.5193 83.0424 72.945 83.6863 72.3595C90.8805 66.0066 98.7896 60.5202 107.322 55.9252C108.683 55.17 110.074 54.4454 111.476 53.7695C112.199 53.4163 112.925 53.0478 113.652 52.7084C113.872 52.5958 114.092 52.4984 114.377 52.3732C114.597 52.2592 114.847 52.1479 115.198 51.995C122.735 48.5432 130.554 45.8256 138.548 43.9203C140.06 43.5434 141.57 43.2083 143.093 42.9232C146.052 42.2987 149.051 41.8203 152.058 41.4462L153.775 41.2292C159.727 40.5589 165.768 40.2919 171.791 40.456C173.346 40.4797 174.899 40.5492 176.453 40.6508C181.697 40.9804 186.908 41.6465 192.016 42.6019L193.068 42.8203C193.239 42.8426 193.404 42.8801 193.575 42.919L193.817 42.9761C197.543 43.7451 201.202 44.6519 204.826 45.7395C206.316 46.1622 207.794 46.6295 209.264 47.1427C216.36 49.5125 223.254 52.5374 229.905 56.17L230.626 56.5552C230.802 56.6734 230.986 56.7735 231.196 56.8917L231.348 56.9891C232.712 57.761 234.037 58.5314 235.357 59.345C236.696 60.1433 238.012 60.9902 239.315 61.8511C247.309 67.1609 254.677 73.3511 261.344 80.3757C261.433 80.4717 261.521 80.5509 261.606 80.6483L262.757 81.8721C263.361 82.5327 263.931 83.1599 264.501 83.8317C270.836 91.0412 276.37 98.9532 280.948 107.471C281.706 108.83 282.402 110.22 283.107 111.609C283.457 112.332 283.815 113.043 284.15 113.766C284.261 114.004 284.389 114.257 284.531 114.585C284.628 114.791 284.728 115.009 284.867 115.326C288.321 122.865 291.019 130.681 292.941 138.678C293.299 140.19 293.651 141.717 293.95 143.258C294.543 146.213 295.056 149.198 295.429 152.204L295.64 153.911C296.33 159.908 296.577 165.917 296.419 171.938C296.363 173.49 296.291 175.058 296.205 176.61Z" fill="#EE2121"/>
</svg>
