<svg width="183" height="84" viewBox="0 0 183 84" fill="none" xmlns="http://www.w3.org/2000/svg">
<mask id="path-1-outside-1_1712_2964" maskUnits="userSpaceOnUse" x="-6" y="-5" width="195" height="94" fill="black">
<rect fill="white" x="-6" y="-5" width="195" height="94"/>
<path d="M21.2031 0.875L15.2734 35H7.42188L13.3516 0.875H21.2031ZM29.2188 0.875L28.1172 7.22656H4.42188L5.54688 0.875H29.2188ZM40.7266 0.875L34.8203 35H26.9922L32.9219 0.875H40.7266ZM66.2266 16.7656L64.0703 31.0156C63.1172 32.0781 61.9688 32.9375 60.625 33.5938C59.2812 34.25 57.875 34.7266 56.4062 35.0234C54.9375 35.3359 53.5078 35.4766 52.1172 35.4453C50.0078 35.4141 48.2344 35 46.7969 34.2031C45.375 33.3906 44.2656 32.2969 43.4688 30.9219C42.6719 29.5312 42.1484 27.9609 41.8984 26.2109C41.6641 24.4609 41.6641 22.6484 41.8984 20.7734L42.7656 15.1484C43.0156 13.1797 43.4922 11.3047 44.1953 9.52344C44.8984 7.74219 45.8125 6.15625 46.9375 4.76562C48.0781 3.375 49.4688 2.28906 51.1094 1.50781C52.75 0.710938 54.6562 0.335938 56.8281 0.382812C59.2656 0.414062 61.25 0.921875 62.7812 1.90625C64.3281 2.875 65.4531 4.22656 66.1562 5.96094C66.875 7.69531 67.2188 9.72656 67.1875 12.0547L59.6875 12.0078C59.7344 11.1484 59.7188 10.3203 59.6406 9.52344C59.5625 8.72656 59.2969 8.07031 58.8438 7.55469C58.4062 7.02344 57.6562 6.73438 56.5938 6.6875C55.4688 6.625 54.5469 6.85937 53.8281 7.39062C53.1094 7.90625 52.5312 8.60156 52.0938 9.47656C51.6719 10.3516 51.3516 11.2891 51.1328 12.2891C50.9297 13.2891 50.7734 14.2188 50.6641 15.0781L49.8203 20.7969C49.7266 21.5781 49.6328 22.4453 49.5391 23.3984C49.4453 24.3359 49.4609 25.2422 49.5859 26.1172C49.7109 26.9766 50.0312 27.6875 50.5469 28.25C51.0781 28.8125 51.9062 29.1016 53.0312 29.1172C53.5156 29.1328 53.9219 29.0781 54.25 28.9531C54.5938 28.8281 54.9297 28.6719 55.2578 28.4844C55.5859 28.2969 55.9531 28.125 56.3594 27.9688L57.4609 22.4141H53.5L54.4844 16.7656H66.2266ZM87.9531 28.6719L86.8516 35H72.3203L73.4453 28.6719H87.9531ZM80.9922 0.875L75.0625 35H67.2812L73.1641 0.875H80.9922ZM88.5391 14.4219L87.4844 20.5391H74.8516L75.9297 14.4219H88.5391ZM92.8516 0.875L91.75 7.22656H77.125L78.25 0.875H92.8516ZM95.9219 0.875L106.844 0.898438C108.859 0.945312 110.594 1.38281 112.047 2.21094C113.516 3.02344 114.617 4.17969 115.352 5.67969C116.086 7.16406 116.383 8.92969 116.242 10.9766C116.117 12.7109 115.789 14.2266 115.258 15.5234C114.727 16.8203 113.953 17.9531 112.938 18.9219C111.938 19.875 110.672 20.7188 109.141 21.4531L106.328 22.9531H97.0469L98.1016 16.6016L104.008 16.6719C104.977 16.6406 105.758 16.3984 106.352 15.9453C106.945 15.4766 107.398 14.875 107.711 14.1406C108.023 13.3906 108.227 12.5859 108.32 11.7266C108.414 11.1484 108.484 10.5234 108.531 9.85156C108.578 9.16406 108.469 8.57813 108.203 8.09375C107.938 7.59375 107.398 7.3125 106.586 7.25L102.672 7.22656L97.8203 35H90.0391L95.9219 0.875ZM104.852 35L101.617 19.9062L109.539 19.8594L113.219 34.6016V35H104.852ZM14.5234 48.875L8.59375 83H0.8125L6.69531 48.875H14.5234ZM22.2344 63.0781L21.1328 69.4062H8.82812L9.92969 63.0781H22.2344ZM25.6328 48.875L24.5312 55.2266H11.2422L12.3672 48.875H25.6328ZM50.3594 63.2422L49.5625 68.3984C49.2812 70.3828 48.7812 72.2891 48.0625 74.1172C47.3594 75.9297 46.4219 77.5469 45.25 78.9688C44.0781 80.3906 42.6484 81.5156 40.9609 82.3438C39.2891 83.1562 37.3594 83.5312 35.1719 83.4688C33.0781 83.4219 31.3281 82.9688 29.9219 82.1094C28.5156 81.25 27.4141 80.1172 26.6172 78.7109C25.8203 77.2891 25.2969 75.7031 25.0469 73.9531C24.7969 72.1875 24.7812 70.3828 25 68.5391L25.7734 63.3594C26.0547 61.4219 26.5469 59.5469 27.25 57.7344C27.9688 55.9219 28.9219 54.3047 30.1094 52.8828C31.2969 51.4453 32.7266 50.3281 34.3984 49.5312C36.0859 48.7188 38.0234 48.3438 40.2109 48.4062C42.2734 48.4375 44 48.8828 45.3906 49.7422C46.7969 50.6016 47.8984 51.7344 48.6953 53.1406C49.5078 54.5469 50.0391 56.1328 50.2891 57.8984C50.5547 59.6484 50.5781 61.4297 50.3594 63.2422ZM41.6406 68.5391L42.4375 63.2891C42.5156 62.6172 42.6016 61.8203 42.6953 60.8984C42.7891 59.9609 42.7891 59.0391 42.6953 58.1328C42.6016 57.2266 42.3281 56.4609 41.875 55.8359C41.4219 55.2109 40.6953 54.875 39.6953 54.8281C38.5078 54.75 37.5547 54.9844 36.8359 55.5312C36.1172 56.0625 35.5469 56.7734 35.125 57.6641C34.7188 58.5391 34.4141 59.4844 34.2109 60.5C34.0078 61.5 33.8438 62.4453 33.7188 63.3359L32.9453 68.5625C32.8672 69.2344 32.7734 70.0391 32.6641 70.9766C32.5703 71.8984 32.5625 72.8203 32.6406 73.7422C32.7188 74.6641 32.9844 75.4375 33.4375 76.0625C33.9062 76.6875 34.6484 77.0234 35.6641 77.0703C36.8047 77.1328 37.7344 76.8906 38.4531 76.3438C39.1875 75.7969 39.7656 75.0781 40.1875 74.1875C40.625 73.2969 40.9453 72.3516 41.1484 71.3516C41.3672 70.3359 41.5312 69.3984 41.6406 68.5391ZM56.9688 48.875L67.8906 48.8984C69.9062 48.9453 71.6406 49.3828 73.0938 50.2109C74.5625 51.0234 75.6641 52.1797 76.3984 53.6797C77.1328 55.1641 77.4297 56.9297 77.2891 58.9766C77.1641 60.7109 76.8359 62.2266 76.3047 63.5234C75.7734 64.8203 75 65.9531 73.9844 66.9219C72.9844 67.875 71.7188 68.7188 70.1875 69.4531L67.375 70.9531H58.0938L59.1484 64.6016L65.0547 64.6719C66.0234 64.6406 66.8047 64.3984 67.3984 63.9453C67.9922 63.4766 68.4453 62.875 68.7578 62.1406C69.0703 61.3906 69.2734 60.5859 69.3672 59.7266C69.4609 59.1484 69.5312 58.5234 69.5781 57.8516C69.625 57.1641 69.5156 56.5781 69.25 56.0938C68.9844 55.5938 68.4453 55.3125 67.6328 55.25L63.7188 55.2266L58.8672 83H51.0859L56.9688 48.875ZM65.8984 83L62.6641 67.9062L70.5859 67.8594L74.2656 82.6016V83H65.8984ZM96.6719 48.875L90.7422 83H82.8906L88.8203 48.875H96.6719ZM104.688 48.875L103.586 55.2266H79.8906L81.0156 48.875H104.688ZM122.617 48.875H130.445L126.484 72.1016C126.172 74.4609 125.477 76.5078 124.398 78.2422C123.336 79.9609 121.914 81.2812 120.133 82.2031C118.352 83.1094 116.242 83.5469 113.805 83.5156C111.508 83.4688 109.586 82.9766 108.039 82.0391C106.492 81.0859 105.367 79.7656 104.664 78.0781C103.977 76.375 103.758 74.3828 104.008 72.1016L107.945 48.875H115.82L111.906 72.125C111.797 72.9375 111.734 73.7266 111.719 74.4922C111.703 75.2422 111.875 75.8672 112.234 76.3672C112.594 76.8516 113.289 77.1094 114.32 77.1406C115.414 77.2031 116.25 77.0078 116.828 76.5547C117.406 76.1016 117.828 75.4844 118.094 74.7031C118.359 73.9062 118.555 73.0469 118.68 72.125L122.617 48.875ZM158.781 48.875L152.875 83H145.258L140.57 61.4609L136.82 83H129.016L134.898 48.875H142.562L147.25 70.4141L150.977 48.875H158.781ZM178.047 76.6719L176.945 83H162.414L163.539 76.6719H178.047ZM171.086 48.875L165.156 83H157.375L163.258 48.875H171.086ZM178.633 62.4219L177.578 68.5391H164.945L166.023 62.4219H178.633ZM182.945 48.875L181.844 55.2266H167.219L168.344 48.875H182.945Z"/>
</mask>
<path d="M21.2031 0.875L15.2734 35H7.42188L13.3516 0.875H21.2031ZM29.2188 0.875L28.1172 7.22656H4.42188L5.54688 0.875H29.2188ZM40.7266 0.875L34.8203 35H26.9922L32.9219 0.875H40.7266ZM66.2266 16.7656L64.0703 31.0156C63.1172 32.0781 61.9688 32.9375 60.625 33.5938C59.2812 34.25 57.875 34.7266 56.4062 35.0234C54.9375 35.3359 53.5078 35.4766 52.1172 35.4453C50.0078 35.4141 48.2344 35 46.7969 34.2031C45.375 33.3906 44.2656 32.2969 43.4688 30.9219C42.6719 29.5312 42.1484 27.9609 41.8984 26.2109C41.6641 24.4609 41.6641 22.6484 41.8984 20.7734L42.7656 15.1484C43.0156 13.1797 43.4922 11.3047 44.1953 9.52344C44.8984 7.74219 45.8125 6.15625 46.9375 4.76562C48.0781 3.375 49.4688 2.28906 51.1094 1.50781C52.75 0.710938 54.6562 0.335938 56.8281 0.382812C59.2656 0.414062 61.25 0.921875 62.7812 1.90625C64.3281 2.875 65.4531 4.22656 66.1562 5.96094C66.875 7.69531 67.2188 9.72656 67.1875 12.0547L59.6875 12.0078C59.7344 11.1484 59.7188 10.3203 59.6406 9.52344C59.5625 8.72656 59.2969 8.07031 58.8438 7.55469C58.4062 7.02344 57.6562 6.73438 56.5938 6.6875C55.4688 6.625 54.5469 6.85937 53.8281 7.39062C53.1094 7.90625 52.5312 8.60156 52.0938 9.47656C51.6719 10.3516 51.3516 11.2891 51.1328 12.2891C50.9297 13.2891 50.7734 14.2188 50.6641 15.0781L49.8203 20.7969C49.7266 21.5781 49.6328 22.4453 49.5391 23.3984C49.4453 24.3359 49.4609 25.2422 49.5859 26.1172C49.7109 26.9766 50.0312 27.6875 50.5469 28.25C51.0781 28.8125 51.9062 29.1016 53.0312 29.1172C53.5156 29.1328 53.9219 29.0781 54.25 28.9531C54.5938 28.8281 54.9297 28.6719 55.2578 28.4844C55.5859 28.2969 55.9531 28.125 56.3594 27.9688L57.4609 22.4141H53.5L54.4844 16.7656H66.2266ZM87.9531 28.6719L86.8516 35H72.3203L73.4453 28.6719H87.9531ZM80.9922 0.875L75.0625 35H67.2812L73.1641 0.875H80.9922ZM88.5391 14.4219L87.4844 20.5391H74.8516L75.9297 14.4219H88.5391ZM92.8516 0.875L91.75 7.22656H77.125L78.25 0.875H92.8516ZM95.9219 0.875L106.844 0.898438C108.859 0.945312 110.594 1.38281 112.047 2.21094C113.516 3.02344 114.617 4.17969 115.352 5.67969C116.086 7.16406 116.383 8.92969 116.242 10.9766C116.117 12.7109 115.789 14.2266 115.258 15.5234C114.727 16.8203 113.953 17.9531 112.938 18.9219C111.938 19.875 110.672 20.7188 109.141 21.4531L106.328 22.9531H97.0469L98.1016 16.6016L104.008 16.6719C104.977 16.6406 105.758 16.3984 106.352 15.9453C106.945 15.4766 107.398 14.875 107.711 14.1406C108.023 13.3906 108.227 12.5859 108.32 11.7266C108.414 11.1484 108.484 10.5234 108.531 9.85156C108.578 9.16406 108.469 8.57813 108.203 8.09375C107.938 7.59375 107.398 7.3125 106.586 7.25L102.672 7.22656L97.8203 35H90.0391L95.9219 0.875ZM104.852 35L101.617 19.9062L109.539 19.8594L113.219 34.6016V35H104.852ZM14.5234 48.875L8.59375 83H0.8125L6.69531 48.875H14.5234ZM22.2344 63.0781L21.1328 69.4062H8.82812L9.92969 63.0781H22.2344ZM25.6328 48.875L24.5312 55.2266H11.2422L12.3672 48.875H25.6328ZM50.3594 63.2422L49.5625 68.3984C49.2812 70.3828 48.7812 72.2891 48.0625 74.1172C47.3594 75.9297 46.4219 77.5469 45.25 78.9688C44.0781 80.3906 42.6484 81.5156 40.9609 82.3438C39.2891 83.1562 37.3594 83.5312 35.1719 83.4688C33.0781 83.4219 31.3281 82.9688 29.9219 82.1094C28.5156 81.25 27.4141 80.1172 26.6172 78.7109C25.8203 77.2891 25.2969 75.7031 25.0469 73.9531C24.7969 72.1875 24.7812 70.3828 25 68.5391L25.7734 63.3594C26.0547 61.4219 26.5469 59.5469 27.25 57.7344C27.9688 55.9219 28.9219 54.3047 30.1094 52.8828C31.2969 51.4453 32.7266 50.3281 34.3984 49.5312C36.0859 48.7188 38.0234 48.3438 40.2109 48.4062C42.2734 48.4375 44 48.8828 45.3906 49.7422C46.7969 50.6016 47.8984 51.7344 48.6953 53.1406C49.5078 54.5469 50.0391 56.1328 50.2891 57.8984C50.5547 59.6484 50.5781 61.4297 50.3594 63.2422ZM41.6406 68.5391L42.4375 63.2891C42.5156 62.6172 42.6016 61.8203 42.6953 60.8984C42.7891 59.9609 42.7891 59.0391 42.6953 58.1328C42.6016 57.2266 42.3281 56.4609 41.875 55.8359C41.4219 55.2109 40.6953 54.875 39.6953 54.8281C38.5078 54.75 37.5547 54.9844 36.8359 55.5312C36.1172 56.0625 35.5469 56.7734 35.125 57.6641C34.7188 58.5391 34.4141 59.4844 34.2109 60.5C34.0078 61.5 33.8438 62.4453 33.7188 63.3359L32.9453 68.5625C32.8672 69.2344 32.7734 70.0391 32.6641 70.9766C32.5703 71.8984 32.5625 72.8203 32.6406 73.7422C32.7188 74.6641 32.9844 75.4375 33.4375 76.0625C33.9062 76.6875 34.6484 77.0234 35.6641 77.0703C36.8047 77.1328 37.7344 76.8906 38.4531 76.3438C39.1875 75.7969 39.7656 75.0781 40.1875 74.1875C40.625 73.2969 40.9453 72.3516 41.1484 71.3516C41.3672 70.3359 41.5312 69.3984 41.6406 68.5391ZM56.9688 48.875L67.8906 48.8984C69.9062 48.9453 71.6406 49.3828 73.0938 50.2109C74.5625 51.0234 75.6641 52.1797 76.3984 53.6797C77.1328 55.1641 77.4297 56.9297 77.2891 58.9766C77.1641 60.7109 76.8359 62.2266 76.3047 63.5234C75.7734 64.8203 75 65.9531 73.9844 66.9219C72.9844 67.875 71.7188 68.7188 70.1875 69.4531L67.375 70.9531H58.0938L59.1484 64.6016L65.0547 64.6719C66.0234 64.6406 66.8047 64.3984 67.3984 63.9453C67.9922 63.4766 68.4453 62.875 68.7578 62.1406C69.0703 61.3906 69.2734 60.5859 69.3672 59.7266C69.4609 59.1484 69.5312 58.5234 69.5781 57.8516C69.625 57.1641 69.5156 56.5781 69.25 56.0938C68.9844 55.5938 68.4453 55.3125 67.6328 55.25L63.7188 55.2266L58.8672 83H51.0859L56.9688 48.875ZM65.8984 83L62.6641 67.9062L70.5859 67.8594L74.2656 82.6016V83H65.8984ZM96.6719 48.875L90.7422 83H82.8906L88.8203 48.875H96.6719ZM104.688 48.875L103.586 55.2266H79.8906L81.0156 48.875H104.688ZM122.617 48.875H130.445L126.484 72.1016C126.172 74.4609 125.477 76.5078 124.398 78.2422C123.336 79.9609 121.914 81.2812 120.133 82.2031C118.352 83.1094 116.242 83.5469 113.805 83.5156C111.508 83.4688 109.586 82.9766 108.039 82.0391C106.492 81.0859 105.367 79.7656 104.664 78.0781C103.977 76.375 103.758 74.3828 104.008 72.1016L107.945 48.875H115.82L111.906 72.125C111.797 72.9375 111.734 73.7266 111.719 74.4922C111.703 75.2422 111.875 75.8672 112.234 76.3672C112.594 76.8516 113.289 77.1094 114.32 77.1406C115.414 77.2031 116.25 77.0078 116.828 76.5547C117.406 76.1016 117.828 75.4844 118.094 74.7031C118.359 73.9062 118.555 73.0469 118.68 72.125L122.617 48.875ZM158.781 48.875L152.875 83H145.258L140.57 61.4609L136.82 83H129.016L134.898 48.875H142.562L147.25 70.4141L150.977 48.875H158.781ZM178.047 76.6719L176.945 83H162.414L163.539 76.6719H178.047ZM171.086 48.875L165.156 83H157.375L163.258 48.875H171.086ZM178.633 62.4219L177.578 68.5391H164.945L166.023 62.4219H178.633ZM182.945 48.875L181.844 55.2266H167.219L168.344 48.875H182.945Z" fill="#CA222C"/>
<path d="M21.2031 0.875L26.1293 1.73099L27.1469 -4.125H21.2031V0.875ZM15.2734 35V40H19.4795L20.1996 35.856L15.2734 35ZM7.42188 35L2.49569 34.144L1.47813 40H7.42188V35ZM13.3516 0.875V-4.125H9.14546L8.42538 0.0190082L13.3516 0.875ZM29.2188 0.875L34.1452 1.7294L35.1605 -4.125H29.2188V0.875ZM28.1172 7.22656V12.2266H32.3247L33.0436 8.08097L28.1172 7.22656ZM4.42188 7.22656L-0.501493 6.35453L-1.54156 12.2266H4.42188V7.22656ZM5.54688 0.875V-4.125H1.35466L0.623507 0.0029645L5.54688 0.875ZM16.2769 0.0190082L10.3473 34.144L20.1996 35.856L26.1293 1.73099L16.2769 0.0190082ZM15.2734 30H7.42188V40H15.2734V30ZM12.3481 35.856L18.2777 1.73099L8.42538 0.0190082L2.49569 34.144L12.3481 35.856ZM13.3516 5.875H21.2031V-4.125H13.3516V5.875ZM24.2923 0.0205956L23.1907 6.37216L33.0436 8.08097L34.1452 1.7294L24.2923 0.0205956ZM28.1172 2.22656H4.42188V12.2266H28.1172V2.22656ZM9.34524 8.0986L10.4702 1.74704L0.623507 0.0029645L-0.501493 6.35453L9.34524 8.0986ZM5.54688 5.875H29.2188V-4.125H5.54688V5.875ZM40.7266 0.875L45.6533 1.72771L46.6663 -4.125H40.7266V0.875ZM34.8203 35V40H39.0293L39.7471 35.8527L34.8203 35ZM26.9922 35L22.066 34.144L21.0484 40H26.9922V35ZM32.9219 0.875V-4.125H28.7158L27.9957 0.0190082L32.9219 0.875ZM35.7998 0.0222926L29.8936 34.1473L39.7471 35.8527L45.6533 1.72771L35.7998 0.0222926ZM34.8203 30H26.9922V40H34.8203V30ZM31.9184 35.856L37.8481 1.73099L27.9957 0.0190082L22.066 34.144L31.9184 35.856ZM32.9219 5.875H40.7266V-4.125H32.9219V5.875ZM66.2266 16.7656L71.1703 17.5137L72.0401 11.7656H66.2266V16.7656ZM64.0703 31.0156L67.7922 34.3544L68.7904 33.2417L69.014 31.7637L64.0703 31.0156ZM56.4062 35.0234L55.4156 30.1226L55.3907 30.1276L55.3657 30.1329L56.4062 35.0234ZM52.1172 35.4453L52.2295 30.4466L52.2104 30.4461L52.1913 30.4459L52.1172 35.4453ZM46.7969 34.2031L44.3162 38.5443L44.3443 38.5604L44.3727 38.5762L46.7969 34.2031ZM43.4688 30.9219L39.1305 33.4078L39.1366 33.4184L39.1427 33.429L43.4688 30.9219ZM41.8984 26.2109L36.9427 26.8747L36.9456 26.8964L36.9487 26.918L41.8984 26.2109ZM41.8984 20.7734L36.9568 20.0116L36.9459 20.0823L36.937 20.1533L41.8984 20.7734ZM42.7656 15.1484L47.7072 15.9103L47.7174 15.8444L47.7258 15.7783L42.7656 15.1484ZM46.9375 4.76562L43.0716 1.59471L43.0609 1.60776L43.0503 1.62089L46.9375 4.76562ZM51.1094 1.50781L53.259 6.02211L53.2765 6.0138L53.2939 6.00535L51.1094 1.50781ZM56.8281 0.382812L56.7202 5.38165L56.7421 5.38212L56.764 5.3824L56.8281 0.382812ZM62.7812 1.90625L60.0775 6.11214L60.1023 6.12814L60.1274 6.14384L62.7812 1.90625ZM66.1562 5.96094L61.5226 7.83946L61.5298 7.85733L61.5372 7.87515L66.1562 5.96094ZM67.1875 12.0547L67.1562 17.0546L72.1204 17.0856L72.187 12.1218L67.1875 12.0547ZM59.6875 12.0078L54.6949 11.7355L54.4091 16.9749L59.6562 17.0077L59.6875 12.0078ZM58.8438 7.55469L54.9841 10.7332L55.035 10.7951L55.0879 10.8553L58.8438 7.55469ZM56.5938 6.6875L56.3164 11.6798L56.3449 11.6814L56.3734 11.6826L56.5938 6.6875ZM53.8281 7.39062L56.7427 11.4533L56.7715 11.4326L56.8001 11.4115L53.8281 7.39062ZM52.0938 9.47656L47.6216 7.24049L47.6055 7.27267L47.5899 7.30507L52.0938 9.47656ZM51.1328 12.2891L46.2483 11.2206L46.2403 11.2571L46.2329 11.2938L51.1328 12.2891ZM50.6641 15.0781L55.6105 15.8079L55.6178 15.7587L55.6241 15.7094L50.6641 15.0781ZM49.8203 20.7969L44.8739 20.0671L44.864 20.134L44.8559 20.2011L49.8203 20.7969ZM49.5391 23.3984L54.5143 23.896L54.515 23.8879L49.5391 23.3984ZM49.5859 26.1172L44.6362 26.8243L44.638 26.8369L49.5859 26.1172ZM50.5469 28.25L46.8611 31.6286L46.8863 31.6561L46.9118 31.6831L50.5469 28.25ZM53.0312 29.1172L53.1925 24.1198L53.1466 24.1183L53.1007 24.1177L53.0312 29.1172ZM54.25 28.9531L52.5413 24.2542L52.5056 24.2672L52.47 24.2807L54.25 28.9531ZM56.3594 27.9688L58.1543 32.6355L60.7276 31.6458L61.2639 28.9414L56.3594 27.9688ZM57.4609 22.4141L62.3654 23.3867L63.5499 17.4141H57.4609V22.4141ZM53.5 22.4141L48.5742 21.5556L47.5533 27.4141H53.5V22.4141ZM54.4844 16.7656V11.7656H50.2804L49.5586 15.9072L54.4844 16.7656ZM61.2828 16.0176L59.1266 30.2676L69.014 31.7637L71.1703 17.5137L61.2828 16.0176ZM60.3484 27.6769C59.8458 28.2371 59.2238 28.7136 58.4308 29.1009L62.8192 38.0866C64.7137 37.1614 66.3886 35.9191 67.7922 34.3544L60.3484 27.6769ZM58.4308 29.1009C57.4701 29.5701 56.4683 29.9098 55.4156 30.1226L57.3969 39.9243C59.2817 39.5434 61.0924 38.9299 62.8192 38.0866L58.4308 29.1009ZM55.3657 30.1329C54.2459 30.3712 53.2036 30.4685 52.2295 30.4466L52.0049 40.444C53.812 40.4847 55.6291 40.3007 57.4468 39.914L55.3657 30.1329ZM52.1913 30.4459C50.6777 30.4234 49.7632 30.1307 49.2211 29.8301L44.3727 38.5762C46.7055 39.8693 49.3379 40.4047 52.0431 40.4448L52.1913 30.4459ZM49.2776 29.8619C48.5975 29.4733 48.1353 29.0023 47.7948 28.4148L39.1427 33.429C40.396 35.5915 42.1525 37.308 44.3162 38.5443L49.2776 29.8619ZM47.807 28.4359C47.3555 27.6481 47.0179 26.6921 46.8482 25.5038L36.9487 26.918C37.2789 29.2298 37.9882 31.4144 39.1305 33.4078L47.807 28.4359ZM46.8542 25.5472C46.6807 24.2519 46.675 22.872 46.8598 21.3936L36.937 20.1533C36.6531 22.4249 36.6474 24.67 36.9427 26.8747L46.8542 25.5472ZM46.8401 21.5353L47.7072 15.9103L37.824 14.3866L36.9568 20.0116L46.8401 21.5353ZM47.7258 15.7783C47.9252 14.2078 48.3014 12.7391 48.8461 11.3593L39.5445 7.6876C38.683 9.87025 38.106 12.1516 37.8055 14.5186L47.7258 15.7783ZM48.8461 11.3593C49.3758 10.0172 50.0411 8.87906 50.8247 7.91036L43.0503 1.62089C41.5839 3.43344 40.421 5.46715 39.5445 7.6876L48.8461 11.3593ZM50.8034 7.93654C51.4727 7.12051 52.2752 6.4906 53.259 6.02211L48.9597 -3.00649C46.6623 -1.91247 44.6835 -0.370508 43.0716 1.59471L50.8034 7.93654ZM53.2939 6.00535C54.0968 5.61537 55.1909 5.34864 56.7202 5.38165L56.936 -4.61602C54.1216 -4.67677 51.4032 -4.19349 48.9249 -2.98973L53.2939 6.00535ZM56.764 5.3824C58.5736 5.4056 59.5591 5.77893 60.0775 6.11214L65.485 -2.29964C62.9409 -3.93518 59.9577 -4.57748 56.8922 -4.61678L56.764 5.3824ZM60.1274 6.14384C60.7586 6.53915 61.204 7.05368 61.5226 7.83946L70.7899 4.08241C69.7023 1.39945 67.8976 -0.789148 65.4351 -2.33134L60.1274 6.14384ZM61.5372 7.87515C61.9413 8.8504 62.2122 10.1806 62.188 11.9876L72.187 12.1218C72.2253 9.27257 71.8087 6.54023 70.7753 4.04673L61.5372 7.87515ZM67.2188 7.05478L59.7188 7.00791L59.6562 17.0077L67.1562 17.0546L67.2188 7.05478ZM64.6801 12.2801C64.7398 11.186 64.7214 10.103 64.6168 9.03558L54.6645 10.0113C54.7161 10.5376 54.729 11.1109 54.6949 11.7355L64.6801 12.2801ZM64.6168 9.03558C64.454 7.37556 63.854 5.68155 62.5996 4.25411L55.0879 10.8553C54.9319 10.6777 54.8194 10.4858 54.7481 10.3096C54.6794 10.14 54.6661 10.0282 54.6645 10.0113L64.6168 9.03558ZM62.7034 4.37615C60.9716 2.27322 58.526 1.76788 56.8141 1.69236L56.3734 11.6826C56.5283 11.6895 56.4178 11.7062 56.155 11.6049C55.8622 11.4921 55.3987 11.2367 54.9841 10.7332L62.7034 4.37615ZM56.8711 1.6952C54.8937 1.58534 52.7348 1.98118 50.8562 3.36974L56.8001 11.4115C56.6055 11.5553 56.4168 11.6302 56.2906 11.6622C56.1777 11.691 56.1706 11.6717 56.3164 11.6798L56.8711 1.6952ZM50.9136 3.32793C49.4673 4.36545 48.3831 5.71749 47.6216 7.24049L56.5659 11.7126C56.6269 11.5906 56.6755 11.5251 56.7001 11.4955C56.7233 11.4676 56.7366 11.4577 56.7427 11.4533L50.9136 3.32793ZM47.5899 7.30507C46.9897 8.54998 46.546 9.85975 46.2483 11.2206L56.0173 13.3575C56.1571 12.7184 56.3541 12.1531 56.5976 11.6481L47.5899 7.30507ZM46.2329 11.2938C46.0094 12.3938 45.8314 13.4463 45.7041 14.4469L55.6241 15.7094C55.7155 14.9912 55.8499 14.1843 56.0327 13.2844L46.2329 11.2938ZM45.7176 14.3483L44.8739 20.0671L54.7668 21.5267L55.6105 15.8079L45.7176 14.3483ZM44.8559 20.2011C44.7571 21.0244 44.6596 21.9277 44.5631 22.909L54.515 23.8879C54.606 22.9629 54.696 22.1319 54.7847 21.3926L44.8559 20.2011ZM44.5639 22.9009C44.4326 24.2132 44.4506 25.5249 44.6362 26.8243L54.5357 25.4101C54.4713 24.9595 54.458 24.4587 54.5142 23.896L44.5639 22.9009ZM44.638 26.8369C44.8868 28.5475 45.5768 30.2276 46.8611 31.6286L54.2326 24.8714C54.3423 24.991 54.425 25.122 54.4786 25.241C54.53 25.3551 54.5369 25.4181 54.5339 25.3975L44.638 26.8369ZM46.9118 31.6831C48.7229 33.6008 51.1022 34.0909 52.9618 34.1167L53.1007 24.1177C52.9317 24.1153 53.0003 24.0933 53.2142 24.168C53.4541 24.2517 53.8281 24.4422 54.1819 24.8169L46.9118 31.6831ZM52.87 34.1146C53.7814 34.144 54.8953 34.0578 56.03 33.6256L52.47 24.2807C52.7187 24.186 52.9164 24.1482 53.0322 24.1326C53.1476 24.117 53.2063 24.1202 53.1925 24.1198L52.87 34.1146ZM55.9587 33.6521C56.5782 33.4268 57.1719 33.1494 57.7385 32.8256L52.7771 24.1432C52.6875 24.1944 52.6093 24.2294 52.5413 24.2542L55.9587 33.6521ZM57.7385 32.8256C57.8165 32.781 57.9499 32.7141 58.1543 32.6355L54.5645 23.302C53.9564 23.5359 53.3553 23.8128 52.7771 24.1432L57.7385 32.8256ZM61.2639 28.9414L62.3654 23.3867L52.5564 21.4414L51.4549 26.9961L61.2639 28.9414ZM57.4609 17.4141H53.5V27.4141H57.4609V17.4141ZM58.4258 23.2725L59.4101 17.6241L49.5586 15.9072L48.5742 21.5556L58.4258 23.2725ZM54.4844 21.7656H66.2266V11.7656H54.4844V21.7656ZM87.9531 28.6719L92.8791 29.5294L93.8987 23.6719H87.9531V28.6719ZM86.8516 35V40H91.0564L91.7775 35.8575L86.8516 35ZM72.3203 35L67.3975 34.1248L66.353 40H72.3203V35ZM73.4453 28.6719V23.6719H69.2558L68.5225 27.7967L73.4453 28.6719ZM80.9922 0.875L85.9184 1.73099L86.9359 -4.125H80.9922V0.875ZM75.0625 35V40H79.2686L79.9887 35.856L75.0625 35ZM67.2812 35L62.3539 34.1506L61.3455 40H67.2812V35ZM73.1641 0.875V-4.125H68.9523L68.2367 0.025579L73.1641 0.875ZM88.5391 14.4219L93.4664 15.2714L94.4749 9.42188H88.5391V14.4219ZM87.4844 20.5391V25.5391H91.6961L92.4117 21.3886L87.4844 20.5391ZM74.8516 20.5391L69.9275 19.6712L68.8933 25.5391H74.8516V20.5391ZM75.9297 14.4219V9.42188H71.7338L71.0056 13.554L75.9297 14.4219ZM92.8516 0.875L97.778 1.7294L98.7934 -4.125H92.8516V0.875ZM91.75 7.22656V12.2266H95.9575L96.6765 8.08097L91.75 7.22656ZM77.125 7.22656L72.2016 6.35453L71.1616 12.2266H77.125V7.22656ZM78.25 0.875V-4.125H74.0578L73.3266 0.0029645L78.25 0.875ZM83.0272 27.8144L81.9256 34.1425L91.7775 35.8575L92.8791 29.5294L83.0272 27.8144ZM86.8516 30H72.3203V40H86.8516V30ZM77.2431 35.8752L78.3681 29.547L68.5225 27.7967L67.3975 34.1248L77.2431 35.8752ZM73.4453 33.6719H87.9531V23.6719H73.4453V33.6719ZM76.066 0.0190082L70.1363 34.144L79.9887 35.856L85.9184 1.73099L76.066 0.0190082ZM75.0625 30H67.2812V40H75.0625V30ZM72.2086 35.8494L78.0914 1.72442L68.2367 0.025579L62.3539 34.1506L72.2086 35.8494ZM73.1641 5.875H80.9922V-4.125H73.1641V5.875ZM83.6118 13.5723L82.5571 19.6895L92.4117 21.3886L93.4664 15.2714L83.6118 13.5723ZM87.4844 15.5391H74.8516V25.5391H87.4844V15.5391ZM79.7757 21.4069L80.8538 15.2897L71.0056 13.554L69.9275 19.6712L79.7757 21.4069ZM75.9297 19.4219H88.5391V9.42188H75.9297V19.4219ZM87.9251 0.0205956L86.8235 6.37216L96.6765 8.08097L97.778 1.7294L87.9251 0.0205956ZM91.75 2.22656H77.125V12.2266H91.75V2.22656ZM82.0484 8.0986L83.1734 1.74704L73.3266 0.0029645L72.2016 6.35453L82.0484 8.0986ZM78.25 5.875H92.8516V-4.125H78.25V5.875ZM95.9219 0.875L95.9326 -4.12499L91.7116 -4.13405L90.9946 0.025579L95.9219 0.875ZM106.844 0.898438L106.96 -4.10021L106.907 -4.10144L106.854 -4.10155L106.844 0.898438ZM112.047 2.21094L109.571 6.55503L109.599 6.57074L109.627 6.58611L112.047 2.21094ZM115.352 5.67969L110.861 7.87825L110.865 7.88757L110.87 7.89687L115.352 5.67969ZM116.242 10.9766L121.229 11.336L121.23 11.3276L121.23 11.3193L116.242 10.9766ZM112.938 18.9219L116.387 22.5412L116.389 22.5399L112.938 18.9219ZM109.141 21.4531L106.978 16.9448L106.882 16.991L106.788 17.0414L109.141 21.4531ZM106.328 22.9531V27.9531H107.578L108.681 27.3649L106.328 22.9531ZM97.0469 22.9531L92.1144 22.1341L91.1482 27.9531H97.0469V22.9531ZM98.1016 16.6016L98.1611 11.6019L93.8718 11.5509L93.1691 15.7825L98.1016 16.6016ZM104.008 16.6719L103.948 21.6715L104.059 21.6728L104.169 21.6693L104.008 16.6719ZM106.352 15.9453L109.385 19.9201L109.418 19.8952L109.45 19.8697L106.352 15.9453ZM107.711 14.1406L112.312 16.0984L112.319 16.0811L112.326 16.0637L107.711 14.1406ZM108.32 11.7266L103.385 10.9262L103.364 11.0548L103.35 11.1843L108.32 11.7266ZM108.531 9.85156L113.519 10.1996L113.52 10.1917L108.531 9.85156ZM108.203 8.09375L103.788 10.4395L103.803 10.4688L103.819 10.4979L108.203 8.09375ZM106.586 7.25L106.969 2.26473L106.793 2.25115L106.616 2.25009L106.586 7.25ZM102.672 7.22656L102.702 2.22665L98.474 2.20134L97.7465 6.36617L102.672 7.22656ZM97.8203 35V40H102.023L102.746 35.8604L97.8203 35ZM90.0391 35L85.1117 34.1506L84.1034 40H90.0391V35ZM104.852 35L99.9625 36.0476L100.809 40H104.852V35ZM101.617 19.9062L101.588 14.9063L95.4401 14.9427L96.7282 20.9539L101.617 19.9062ZM109.539 19.8594L114.39 18.6485L113.439 14.8362L109.509 14.8595L109.539 19.8594ZM113.219 34.6016H118.219V33.987L118.07 33.3907L113.219 34.6016ZM113.219 35V40H118.219V35H113.219ZM95.9111 5.87499L106.833 5.89843L106.854 -4.10155L95.9326 -4.12499L95.9111 5.87499ZM106.728 5.89709C108.084 5.92863 108.972 6.21361 109.571 6.55503L114.523 -2.13315C112.215 -3.44798 109.635 -4.038 106.96 -4.10021L106.728 5.89709ZM109.627 6.58611C110.203 6.90511 110.58 7.3038 110.861 7.87825L119.842 3.48112C118.655 1.05558 116.828 -0.858237 114.467 -2.16423L109.627 6.58611ZM110.87 7.89687C111.128 8.41891 111.348 9.26087 111.254 10.6339L121.23 11.3193C121.417 8.59851 121.044 5.90921 119.833 3.46251L110.87 7.89687ZM111.255 10.6171C111.159 11.9455 110.92 12.9224 110.631 13.6281L119.885 17.4188C120.658 15.5308 121.075 13.4764 121.229 11.336L111.255 10.6171ZM110.631 13.6281C110.367 14.2735 109.994 14.8195 109.486 15.3038L116.389 22.5399C117.912 21.0867 119.087 19.3672 119.885 17.4188L110.631 13.6281ZM109.488 15.3025C108.943 15.8216 108.141 16.3873 106.978 16.9448L111.303 25.9615C113.203 25.0502 114.932 23.9284 116.387 22.5412L109.488 15.3025ZM106.788 17.0414L103.975 18.5414L108.681 27.3649L111.494 25.8649L106.788 17.0414ZM106.328 17.9531H97.0469V27.9531H106.328V17.9531ZM101.979 23.7722L103.034 17.4206L93.1691 15.7825L92.1144 22.1341L101.979 23.7722ZM98.042 21.6012L103.948 21.6715L104.067 11.6722L98.1611 11.6019L98.042 21.6012ZM104.169 21.6693C105.87 21.6144 107.748 21.1694 109.385 19.9201L103.318 11.9706C103.53 11.8087 103.723 11.7272 103.84 11.691C103.947 11.6577 103.963 11.6707 103.847 11.6745L104.169 21.6693ZM109.45 19.8697C110.738 18.8529 111.69 17.56 112.312 16.0984L103.11 12.1828C103.103 12.1987 103.111 12.1765 103.143 12.1343C103.176 12.091 103.215 12.051 103.253 12.0209L109.45 19.8697ZM112.326 16.0637C112.834 14.8454 113.149 13.5727 113.291 12.2688L103.35 11.1843C103.305 11.5992 103.213 11.9358 103.096 12.2175L112.326 16.0637ZM113.256 12.5269C113.377 11.7787 113.463 11.001 113.519 10.1996L103.543 9.50357C103.506 10.0458 103.451 10.5182 103.385 10.9262L113.256 12.5269ZM113.52 10.1917C113.616 8.78601 113.414 7.19756 112.587 5.68959L103.819 10.4979C103.523 9.95869 103.541 9.54211 103.543 9.51144L113.52 10.1917ZM112.619 5.74797C111.229 3.13293 108.674 2.39587 106.969 2.26473L106.202 12.2353C106.152 12.2314 105.783 12.1996 105.287 11.9407C104.73 11.6504 104.164 11.1486 103.788 10.4395L112.619 5.74797ZM106.616 2.25009L102.702 2.22665L102.642 12.2265L106.556 12.2499L106.616 2.25009ZM97.7465 6.36617L92.8949 34.1396L102.746 35.8604L107.597 8.08695L97.7465 6.36617ZM97.8203 30H90.0391V40H97.8203V30ZM94.9664 35.8494L100.849 1.72442L90.9946 0.025579L85.1117 34.1506L94.9664 35.8494ZM109.741 33.9524L106.506 18.8586L96.7282 20.9539L99.9625 36.0476L109.741 33.9524ZM101.647 24.9062L109.569 24.8593L109.509 14.8595L101.588 14.9063L101.647 24.9062ZM104.688 21.0702L108.368 35.8124L118.07 33.3907L114.39 18.6485L104.688 21.0702ZM108.219 34.6016V35H118.219V34.6016H108.219ZM113.219 30H104.852V40H113.219V30ZM14.5234 48.875L19.4496 49.731L20.4672 43.875H14.5234V48.875ZM8.59375 83V88H12.7999L13.5199 83.856L8.59375 83ZM0.8125 83L-4.11482 82.1506L-5.1232 88H0.8125V83ZM6.69531 48.875V43.875H2.48351L1.76799 48.0256L6.69531 48.875ZM22.2344 63.0781L27.1603 63.9356L28.1799 58.0781H22.2344V63.0781ZM21.1328 69.4062V74.4062H25.3376L26.0587 70.2637L21.1328 69.4062ZM8.82812 69.4062L3.9022 68.5488L2.88257 74.4062H8.82812V69.4062ZM9.92969 63.0781V58.0781H5.72487L5.00376 62.2206L9.92969 63.0781ZM25.6328 48.875L30.5593 49.7294L31.5746 43.875H25.6328V48.875ZM24.5312 55.2266V60.2266H28.7387L29.4577 56.081L24.5312 55.2266ZM11.2422 55.2266L6.31882 54.3545L5.27875 60.2266H11.2422V55.2266ZM12.3672 48.875V43.875H8.17497L7.44382 48.003L12.3672 48.875ZM9.59725 48.019L3.66757 82.144L13.5199 83.856L19.4496 49.731L9.59725 48.019ZM8.59375 78H0.8125V88H8.59375V78ZM5.73982 83.8494L11.6226 49.7244L1.76799 48.0256L-4.11482 82.1506L5.73982 83.8494ZM6.69531 53.875H14.5234V43.875H6.69531V53.875ZM17.3085 62.2206L16.2069 68.5488L26.0587 70.2637L27.1603 63.9356L17.3085 62.2206ZM21.1328 64.4062H8.82812V74.4062H21.1328V64.4062ZM13.7541 70.2637L14.8556 63.9356L5.00376 62.2206L3.9022 68.5488L13.7541 70.2637ZM9.92969 68.0781H22.2344V58.0781H9.92969V68.0781ZM20.7064 48.0206L19.6048 54.3722L29.4577 56.081L30.5593 49.7294L20.7064 48.0206ZM24.5312 50.2266H11.2422V60.2266H24.5312V50.2266ZM16.1656 56.0986L17.2906 49.747L7.44382 48.003L6.31882 54.3545L16.1656 56.0986ZM12.3672 53.875H25.6328V43.875H12.3672V53.875ZM50.3594 63.2422L55.3007 64.0059L55.3134 63.9238L55.3234 63.8413L50.3594 63.2422ZM49.5625 68.3984L44.6212 67.6348L44.6164 67.6658L44.612 67.6968L49.5625 68.3984ZM48.0625 74.1172L43.4092 72.2877L43.4051 72.2983L43.401 72.3088L48.0625 74.1172ZM40.9609 82.3438L43.1464 86.8408L43.1551 86.8366L43.1637 86.8324L40.9609 82.3438ZM35.1719 83.4688L35.3147 78.4708L35.2992 78.4704L35.2838 78.47L35.1719 83.4688ZM26.6172 78.7109L22.2555 81.1554L22.2613 81.1657L22.2671 81.176L26.6172 78.7109ZM25.0469 73.9531L20.0963 74.6541L20.0971 74.6602L25.0469 73.9531ZM25 68.5391L20.0548 67.8006L20.0437 67.8752L20.0348 67.95L25 68.5391ZM25.7734 63.3594L30.7186 64.0978L30.7201 64.0877L30.7216 64.0777L25.7734 63.3594ZM27.25 57.7344L22.6021 55.8912L22.5952 55.9086L22.5885 55.926L27.25 57.7344ZM30.1094 52.8828L33.947 56.0879L33.9556 56.0776L33.9642 56.0672L30.1094 52.8828ZM34.3984 49.5312L36.5497 54.0448L36.5586 54.0405L36.5675 54.0363L34.3984 49.5312ZM40.2109 48.4062L40.0681 53.4042L40.1017 53.4052L40.1352 53.4057L40.2109 48.4062ZM45.3906 49.7422L42.7621 53.9955L42.7727 54.0021L42.7834 54.0086L45.3906 49.7422ZM48.6953 53.1406L44.3452 55.6057L44.3555 55.6239L44.366 55.642L48.6953 53.1406ZM50.2891 57.8984L45.3384 58.5994L45.3419 58.6241L45.3457 58.6488L50.2891 57.8984ZM41.6406 68.5391L36.6972 67.7887L36.6882 67.8482L36.6806 67.9078L41.6406 68.5391ZM42.4375 63.2891L47.3809 64.0394L47.394 63.9532L47.404 63.8666L42.4375 63.2891ZM42.6953 60.8984L47.6697 61.4043L47.6705 61.396L42.6953 60.8984ZM39.6953 54.8281L39.3671 59.8173L39.4141 59.8204L39.4612 59.8226L39.6953 54.8281ZM36.8359 55.5312L39.8079 59.5521L39.8359 59.5315L39.8635 59.5104L36.8359 55.5312ZM35.125 57.6641L30.6063 55.5236L30.5981 55.541L30.59 55.5585L35.125 57.6641ZM34.2109 60.5L39.1109 61.4953L39.1124 61.4879L39.1138 61.4806L34.2109 60.5ZM33.7188 63.3359L38.6649 64.0679L38.6676 64.0494L38.6702 64.0309L33.7188 63.3359ZM32.9453 68.5625L27.9992 67.8306L27.9878 67.9076L27.9788 67.985L32.9453 68.5625ZM32.6641 70.9766L27.6977 70.3972L27.6935 70.4339L27.6897 70.4707L32.6641 70.9766ZM33.4375 76.0625L29.3894 78.9973L29.4132 79.0301L29.4375 79.0625L33.4375 76.0625ZM35.6641 77.0703L35.9376 72.0778L35.9161 72.0766L35.8946 72.0756L35.6641 77.0703ZM38.4531 76.3438L35.4668 72.3335L35.4461 72.349L35.4255 72.3646L38.4531 76.3438ZM40.1875 74.1875L35.6997 71.983L35.684 72.0149L35.6688 72.0471L40.1875 74.1875ZM41.1484 71.3516L36.2605 70.2988L36.2543 70.3275L36.2485 70.3563L41.1484 71.3516ZM45.418 62.4785L44.6212 67.6348L54.5038 69.1621L55.3007 64.0059L45.418 62.4785ZM44.612 67.6968C44.3844 69.3028 43.9823 70.83 43.4092 72.2877L52.7158 75.9467C53.5802 73.7482 54.1781 71.4628 54.513 69.1001L44.612 67.6968ZM43.401 72.3088C42.88 73.6518 42.206 74.8005 41.3916 75.7887L49.1084 82.1488C50.6377 80.2932 51.8387 78.2076 52.724 75.9255L43.401 72.3088ZM41.3916 75.7887C40.6815 76.6503 39.8202 77.3339 38.7582 77.8551L43.1637 86.8324C45.4766 85.6973 47.4747 84.131 49.1084 82.1488L41.3916 75.7887ZM38.7754 77.8467C37.9462 78.2497 36.8396 78.5144 35.3147 78.4708L35.0291 88.4667C37.8791 88.5481 40.6319 88.0628 43.1464 86.8408L38.7754 77.8467ZM35.2838 78.47C33.8371 78.4376 33.0049 78.1337 32.5291 77.843L27.3146 86.3758C29.6513 87.8038 32.3192 88.4061 35.06 88.4675L35.2838 78.47ZM32.5291 77.843C31.8325 77.4173 31.3371 76.8984 30.9673 76.2459L22.2671 81.176C23.491 83.3359 25.1988 85.0827 27.3146 86.3758L32.5291 77.843ZM30.9789 76.2665C30.5081 75.4264 30.1668 74.4374 29.9966 73.246L20.0971 74.6602C20.4269 76.9688 21.1326 79.1518 22.2555 81.1554L30.9789 76.2665ZM29.9975 73.2522C29.8105 71.9314 29.7952 70.5608 29.9652 69.1282L20.0348 67.95C19.7673 70.2049 19.7833 72.4436 20.0963 74.6541L29.9975 73.2522ZM29.9452 69.2775L30.7186 64.0978L20.8283 62.621L20.0548 67.8006L29.9452 69.2775ZM30.7216 64.0777C30.9491 62.5105 31.3457 61.0013 31.9115 59.5427L22.5885 55.926C21.7481 58.0924 21.1603 60.3332 20.8253 62.6411L30.7216 64.0777ZM31.8979 59.5775C32.431 58.2331 33.1178 57.0807 33.947 56.0879L26.2717 49.6777C24.7259 51.5286 23.5065 53.6107 22.6021 55.8912L31.8979 59.5775ZM33.9642 56.0672C34.6907 55.1877 35.5404 54.5259 36.5497 54.0448L32.2471 45.0177C29.9128 46.1304 27.903 47.7029 26.2546 49.6984L33.9642 56.0672ZM36.5675 54.0363C37.4226 53.6245 38.545 53.3607 40.0681 53.4042L40.3537 43.4083C37.5019 43.3268 34.7493 43.813 32.2294 45.0262L36.5675 54.0363ZM40.1352 53.4057C41.5285 53.4268 42.3164 53.7201 42.7621 53.9955L48.0191 45.4888C45.6836 44.0455 43.0184 43.4482 40.2867 43.4068L40.1352 53.4057ZM42.7834 54.0086C43.48 54.4343 43.9754 54.9531 44.3452 55.6057L53.0454 50.6756C51.8215 48.5156 50.1137 46.7688 47.9979 45.4758L42.7834 54.0086ZM44.366 55.642C44.8279 56.4414 45.1694 57.4058 45.3384 58.5994L55.2397 57.1975C54.9087 54.8598 54.1877 52.6523 53.0246 50.6392L44.366 55.642ZM45.3457 58.6488C45.5414 59.9381 45.5617 61.2651 45.3954 62.6431L55.3234 63.8413C55.5945 61.5943 55.568 59.3588 55.2324 57.1481L45.3457 58.6488ZM46.584 69.2894L47.3809 64.0394L37.4941 62.5387L36.6972 67.7887L46.584 69.2894ZM47.404 63.8666C47.4857 63.164 47.5743 62.342 47.6697 61.4043L37.721 60.3926C37.6288 61.2986 37.5455 62.0704 37.471 62.7116L47.404 63.8666ZM47.6705 61.396C47.7968 60.1334 47.7985 58.8723 47.6688 57.6183L37.7219 58.6473C37.7796 59.2059 37.7814 59.7885 37.7201 60.4009L47.6705 61.396ZM47.6688 57.6183C47.501 55.9965 46.9781 54.3563 45.9231 52.9011L37.8269 58.7708C37.7605 58.6791 37.7256 58.6009 37.7112 58.5606C37.6982 58.5242 37.7113 58.5453 37.7219 58.6473L47.6688 57.6183ZM45.9231 52.9011C44.3258 50.698 41.9597 49.9288 39.9294 49.8336L39.4612 59.8226C39.4611 59.8226 39.448 59.822 39.4232 59.8189C39.3985 59.8157 39.3607 59.8098 39.3117 59.7989C39.2135 59.7772 39.0675 59.7348 38.8918 59.6536C38.5086 59.4764 38.1214 59.1769 37.8269 58.7708L45.9231 52.9011ZM40.0236 49.8389C38.021 49.7072 35.7575 50.069 33.8083 51.5521L39.8635 59.5104C39.6323 59.6863 39.4137 59.7687 39.2838 59.8007C39.1702 59.8286 39.1798 59.805 39.3671 59.8173L40.0236 49.8389ZM33.864 51.5104C32.4165 52.5802 31.344 53.9663 30.6063 55.5236L39.6437 59.8045C39.7011 59.6833 39.747 59.6194 39.7693 59.5916C39.7902 59.5656 39.8019 59.5566 39.8079 59.5521L33.864 51.5104ZM30.59 55.5585C30.0052 56.8179 29.5831 58.1439 29.308 59.5194L39.1138 61.4806C39.245 60.8248 39.4323 60.2602 39.66 59.7696L30.59 55.5585ZM29.311 59.5047C29.0903 60.5913 28.9081 61.6375 28.7673 62.641L38.6702 64.0309C38.7794 63.2532 38.9253 62.4087 39.1109 61.4953L29.311 59.5047ZM28.7726 62.604L27.9992 67.8306L37.8914 69.2944L38.6649 64.0679L28.7726 62.604ZM27.9788 67.985C27.9007 68.656 27.8071 69.4601 27.6977 70.3972L37.6304 71.556C37.7398 70.6181 37.8336 69.8127 37.9118 69.14L27.9788 67.985ZM27.6897 70.4707C27.5646 71.7005 27.5541 72.9331 27.6585 74.1644L37.6228 73.32C37.5709 72.7075 37.576 72.0963 37.6384 71.4824L27.6897 70.4707ZM27.6585 74.1644C27.7981 75.8123 28.3047 77.5011 29.3894 78.9973L37.4856 73.1277C37.5664 73.2391 37.6089 73.3359 37.6273 73.3896C37.6441 73.4385 37.6316 73.424 37.6228 73.32L27.6585 74.1644ZM29.4375 79.0625C31.0567 81.2214 33.4101 81.9716 35.4335 82.065L35.8946 72.0756C35.8682 72.0744 36.0779 72.0789 36.4075 72.2281C36.769 72.3917 37.145 72.6725 37.4375 73.0625L29.4375 79.0625ZM35.3905 82.0628C37.3942 82.1726 39.588 81.763 41.4807 80.3229L35.4255 72.3646C35.6255 72.2124 35.8224 72.1319 35.9563 72.097C36.076 72.0659 36.0864 72.086 35.9376 72.0778L35.3905 82.0628ZM41.4395 80.354C42.8794 79.2817 43.9616 77.8999 44.7062 76.3279L35.6688 72.0471C35.5697 72.2564 35.4956 72.3121 35.4668 72.3335L41.4395 80.354ZM44.6753 76.392C45.3066 75.1068 45.7626 73.754 46.0484 72.3469L36.2485 70.3563C36.1281 70.9492 35.9434 71.4869 35.6997 71.983L44.6753 76.392ZM46.0363 72.4043C46.2794 71.2757 46.4701 70.1957 46.6006 69.1703L36.6806 67.9078C36.5924 68.6012 36.4549 69.3961 36.2605 70.2988L46.0363 72.4043ZM56.9688 48.875L56.9795 43.875L52.7585 43.866L52.0414 48.0256L56.9688 48.875ZM67.8906 48.8984L68.0069 43.8998L67.9541 43.8986L67.9014 43.8984L67.8906 48.8984ZM73.0938 50.2109L70.6181 54.555L70.6457 54.5707L70.6734 54.5861L73.0938 50.2109ZM76.3984 53.6797L71.9077 55.8783L71.9123 55.8876L71.9169 55.8969L76.3984 53.6797ZM77.2891 58.9766L82.2761 59.336L82.2767 59.3276L82.2773 59.3193L77.2891 58.9766ZM73.9844 66.9219L77.4341 70.5412L77.4354 70.5399L73.9844 66.9219ZM70.1875 69.4531L68.0253 64.9448L67.9289 64.991L67.8346 65.0414L70.1875 69.4531ZM67.375 70.9531V75.9531H68.625L69.7279 75.3649L67.375 70.9531ZM58.0938 70.9531L53.1613 70.1341L52.195 75.9531H58.0938V70.9531ZM59.1484 64.6016L59.208 59.6019L54.9187 59.5508L54.216 63.7825L59.1484 64.6016ZM65.0547 64.6719L64.9952 69.6715L65.1056 69.6728L65.2159 69.6693L65.0547 64.6719ZM67.3984 63.9453L70.4318 67.9201L70.4644 67.8952L70.4967 67.8697L67.3984 63.9453ZM68.7578 62.1406L73.3586 64.0984L73.366 64.0811L73.3732 64.0637L68.7578 62.1406ZM69.3672 59.7266L64.4317 58.9262L64.4108 59.0548L64.3967 59.1843L69.3672 59.7266ZM69.5781 57.8516L74.566 58.1996L74.5665 58.1917L69.5781 57.8516ZM69.25 56.0938L64.8344 58.4395L64.85 58.4688L64.8659 58.4979L69.25 56.0938ZM67.6328 55.25L68.0163 50.2647L67.8398 50.2511L67.6628 50.2501L67.6328 55.25ZM63.7188 55.2266L63.7487 50.2267L59.5209 50.2013L58.7933 54.3662L63.7188 55.2266ZM58.8672 83V88H63.0695L63.7926 83.8604L58.8672 83ZM51.0859 83L46.1586 82.1506L45.1502 88H51.0859V83ZM65.8984 83L61.0094 84.0476L61.8564 88H65.8984V83ZM62.6641 67.9062L62.6345 62.9063L56.4869 62.9427L57.7751 68.9539L62.6641 67.9062ZM70.5859 67.8594L75.4371 66.6485L74.4855 62.8362L70.5564 62.8595L70.5859 67.8594ZM74.2656 82.6016H79.2656V81.987L79.1168 81.3907L74.2656 82.6016ZM74.2656 83V88H79.2656V83H74.2656ZM56.958 53.875L67.8799 53.8984L67.9014 43.8984L56.9795 43.875L56.958 53.875ZM67.7744 53.8971C69.1306 53.9286 70.019 54.2136 70.6181 54.555L75.5694 45.8669C73.2623 44.552 70.6819 43.962 68.0069 43.8998L67.7744 53.8971ZM70.6734 54.5861C71.2501 54.9051 71.6265 55.3038 71.9077 55.8783L80.8891 51.4811C79.7016 49.0556 77.8749 47.1418 75.5141 45.8358L70.6734 54.5861ZM71.9169 55.8969C72.1752 56.4189 72.3951 57.2609 72.3008 58.6339L82.2773 59.3193C82.4642 56.5985 82.0904 53.9092 80.88 51.4625L71.9169 55.8969ZM72.302 58.6171C72.2063 59.9455 71.9669 60.9224 71.6778 61.6281L80.9315 65.4188C81.7049 63.5308 82.1219 61.4764 82.2761 59.336L72.302 58.6171ZM71.6778 61.6281C71.4135 62.2735 71.0411 62.8195 70.5333 63.3038L77.4354 70.5399C78.9589 69.0867 80.1334 67.3672 80.9315 65.4188L71.6778 61.6281ZM70.5347 63.3025C69.9901 63.8216 69.1877 64.3873 68.0253 64.9448L72.3497 73.9615C74.2498 73.0502 75.9787 71.9284 77.4341 70.5412L70.5347 63.3025ZM67.8346 65.0414L65.0221 66.5414L69.7279 75.3649L72.5404 73.8649L67.8346 65.0414ZM67.375 65.9531H58.0938V75.9531H67.375V65.9531ZM63.0262 71.7722L64.0809 65.4206L54.216 63.7825L53.1613 70.1341L63.0262 71.7722ZM59.0889 69.6012L64.9952 69.6715L65.1142 59.6722L59.208 59.6019L59.0889 69.6012ZM65.2159 69.6693C66.9164 69.6144 68.7948 69.1694 70.4318 67.9201L64.3651 59.9706C64.5772 59.8087 64.77 59.7272 64.8867 59.691C64.9942 59.6577 65.0103 59.6707 64.8935 59.6745L65.2159 69.6693ZM70.4967 67.8697C71.7846 66.8529 72.7366 65.56 73.3586 64.0984L64.157 60.1828C64.1503 60.1987 64.158 60.1765 64.1898 60.1343C64.2224 60.091 64.262 60.051 64.3002 60.0209L70.4967 67.8697ZM73.3732 64.0637C73.8808 62.8454 74.1955 61.5727 74.3377 60.2688L64.3967 59.1843C64.3514 59.5992 64.2598 59.9358 64.1424 60.2175L73.3732 64.0637ZM74.3027 60.5269C74.4241 59.7787 74.5101 59.001 74.566 58.1996L64.5902 57.5036C64.5524 58.0458 64.4978 58.5182 64.4317 58.9262L74.3027 60.5269ZM74.5665 58.1917C74.6624 56.786 74.461 55.1976 73.6341 53.6896L64.8659 58.4979C64.5702 57.9587 64.5876 57.5421 64.5897 57.5114L74.5665 58.1917ZM73.6656 53.748C72.2763 51.1329 69.7212 50.3959 68.0163 50.2647L67.2493 60.2353C67.1984 60.2314 66.8299 60.1996 66.3337 59.9407C65.7771 59.6504 65.2111 59.1486 64.8344 58.4395L73.6656 53.748ZM67.6628 50.2501L63.7487 50.2267L63.6888 60.2265L67.6029 60.2499L67.6628 50.2501ZM58.7933 54.3662L53.9418 82.1396L63.7926 83.8604L68.6442 56.087L58.7933 54.3662ZM58.8672 78H51.0859V88H58.8672V78ZM56.0133 83.8494L61.8961 49.7244L52.0414 48.0256L46.1586 82.1506L56.0133 83.8494ZM70.7875 81.9524L67.5531 66.8586L57.7751 68.9539L61.0094 84.0476L70.7875 81.9524ZM62.6936 72.9062L70.6155 72.8593L70.5564 62.8595L62.6345 62.9063L62.6936 72.9062ZM65.7348 69.0702L69.4145 83.8124L79.1168 81.3907L75.4371 66.6485L65.7348 69.0702ZM69.2656 82.6016V83H79.2656V82.6016H69.2656ZM74.2656 78H65.8984V88H74.2656V78ZM96.6719 48.875L101.598 49.731L102.616 43.875H96.6719V48.875ZM90.7422 83V88H94.9483L95.6684 83.856L90.7422 83ZM82.8906 83L77.9644 82.144L76.9469 88H82.8906V83ZM88.8203 48.875V43.875H84.6142L83.8941 48.019L88.8203 48.875ZM104.688 48.875L109.614 49.7294L110.629 43.875H104.688V48.875ZM103.586 55.2266V60.2266H107.793L108.512 56.081L103.586 55.2266ZM79.8906 55.2266L74.9673 54.3545L73.9272 60.2266H79.8906V55.2266ZM81.0156 48.875V43.875H76.8234L76.0923 48.003L81.0156 48.875ZM91.7457 48.019L85.816 82.144L95.6684 83.856L101.598 49.731L91.7457 48.019ZM90.7422 78H82.8906V88H90.7422V78ZM87.8168 83.856L93.7465 49.731L83.8941 48.019L77.9644 82.144L87.8168 83.856ZM88.8203 53.875H96.6719V43.875H88.8203V53.875ZM99.761 48.0206L98.6595 54.3722L108.512 56.081L109.614 49.7294L99.761 48.0206ZM103.586 50.2266H79.8906V60.2266H103.586V50.2266ZM84.814 56.0986L85.939 49.747L76.0923 48.003L74.9673 54.3545L84.814 56.0986ZM81.0156 53.875H104.688V43.875H81.0156V53.875ZM122.617 48.875V43.875H118.393L117.687 48.0401L122.617 48.875ZM130.445 48.875L135.374 49.7155L136.37 43.875H130.445V48.875ZM126.484 72.1016L121.556 71.261L121.54 71.3528L121.528 71.445L126.484 72.1016ZM124.398 78.2422L120.152 75.6025L120.145 75.6131L124.398 78.2422ZM120.133 82.2031L122.4 86.6595L122.416 86.6516L122.431 86.6437L120.133 82.2031ZM113.805 83.5156L113.703 88.5146L113.722 88.515L113.741 88.5152L113.805 83.5156ZM108.039 82.0391L105.416 86.2959L105.432 86.3055L105.448 86.315L108.039 82.0391ZM104.664 78.0781L100.028 79.9497L100.038 79.9755L100.049 80.0012L104.664 78.0781ZM104.008 72.1016L99.0781 71.2659L99.0536 71.4108L99.0376 71.5569L104.008 72.1016ZM107.945 48.875V43.875H103.722L103.016 48.0393L107.945 48.875ZM115.82 48.875L120.751 49.7051L121.732 43.875H115.82V48.875ZM111.906 72.125L106.976 71.2949L106.962 71.3762L106.951 71.4579L111.906 72.125ZM111.719 74.4922L116.718 74.5963L116.718 74.5942L111.719 74.4922ZM112.234 76.3672L108.174 79.2854L108.196 79.3161L108.219 79.3464L112.234 76.3672ZM114.32 77.1406L114.606 72.1488L114.539 72.145L114.472 72.1429L114.32 77.1406ZM118.094 74.7031L122.828 76.3126L122.832 76.2985L122.837 76.2843L118.094 74.7031ZM118.68 72.125L113.75 71.2901L113.736 71.3714L113.725 71.4532L118.68 72.125ZM122.617 53.875H130.445V43.875H122.617V53.875ZM125.516 48.0345L121.556 71.261L131.413 72.9421L135.374 49.7155L125.516 48.0345ZM121.528 71.445C121.293 73.216 120.798 74.5629 120.152 75.6025L128.645 80.8819C130.155 78.4527 131.051 75.7059 131.441 72.7581L121.528 71.445ZM120.145 75.6131C119.555 76.5683 118.806 77.2598 117.835 77.7626L122.431 86.6437C125.022 85.3027 127.117 83.3535 128.651 80.8713L120.145 75.6131ZM117.866 77.7467C116.948 78.2136 115.672 78.5392 113.869 78.516L113.741 88.5152C116.812 88.5546 119.755 88.0051 122.4 86.6595L117.866 77.7467ZM113.907 78.5167C112.255 78.483 111.248 78.1375 110.631 77.7631L105.448 86.315C107.923 87.8156 110.76 88.4545 113.703 88.5146L113.907 78.5167ZM110.662 77.7822C110.013 77.3826 109.582 76.8814 109.279 76.155L100.049 80.0012C101.152 82.6498 102.971 84.7893 105.416 86.2959L110.662 77.7822ZM109.301 76.2065C108.99 75.4368 108.796 74.308 108.978 72.6462L99.0376 71.5569C98.7197 74.4576 98.9633 77.3132 100.028 79.9497L109.301 76.2065ZM108.937 72.9373L112.875 49.7107L103.016 48.0393L99.0781 71.2659L108.937 72.9373ZM107.945 53.875H115.82V43.875H107.945V53.875ZM110.89 48.0449L106.976 71.2949L116.837 72.9551L120.751 49.7051L110.89 48.0449ZM106.951 71.4579C106.818 72.4448 106.74 73.4228 106.72 74.3902L116.718 74.5942C116.729 74.0303 116.776 73.4302 116.862 72.7921L106.951 71.4579ZM106.72 74.388C106.687 75.9787 107.055 77.7281 108.174 79.2854L116.294 73.449C116.479 73.7055 116.594 73.9689 116.657 74.1977C116.717 74.4172 116.718 74.5627 116.718 74.5963L106.72 74.388ZM108.219 79.3464C109.973 81.7109 112.663 82.0927 114.169 82.1383L114.472 72.1429C114.303 72.1378 114.447 72.1182 114.764 72.2357C115.115 72.366 115.732 72.69 116.25 73.388L108.219 79.3464ZM114.035 82.1325C115.763 82.2312 118.002 81.9877 119.913 80.49L113.744 72.6194C114.117 72.3271 114.458 72.2124 114.63 72.1721C114.786 72.1357 114.8 72.1599 114.606 72.1488L114.035 82.1325ZM119.913 80.49C121.346 79.3661 122.289 77.8957 122.828 76.3126L113.36 73.0936C113.358 73.0986 113.38 73.033 113.45 72.9304C113.523 72.8242 113.623 72.7141 113.744 72.6194L119.913 80.49ZM122.837 76.2843C123.211 75.1619 123.472 73.9952 123.634 72.7968L113.725 71.4532C113.638 72.0986 113.507 72.6506 113.35 73.122L122.837 76.2843ZM123.609 72.9599L127.547 49.7099L117.687 48.0401L113.75 71.2901L123.609 72.9599ZM158.781 48.875L163.708 49.7277L164.721 43.875H158.781V48.875ZM152.875 83V88H157.084L157.802 83.8527L152.875 83ZM145.258 83L140.372 84.0633L141.229 88H145.258V83ZM140.57 61.4609L145.456 60.3977L135.644 60.6033L140.57 61.4609ZM136.82 83V88H141.025L141.746 83.8576L136.82 83ZM129.016 83L124.088 82.1506L123.08 88H129.016V83ZM134.898 48.875V43.875H130.687L129.971 48.0256L134.898 48.875ZM142.562 48.875L147.448 47.8117L146.591 43.875H142.562V48.875ZM147.25 70.4141L142.364 71.4773L152.177 71.2665L147.25 70.4141ZM150.977 48.875V43.875H146.767L146.05 48.0226L150.977 48.875ZM153.854 48.0223L147.948 82.1473L157.802 83.8527L163.708 49.7277L153.854 48.0223ZM152.875 78H145.258V88H152.875V78ZM150.143 81.9367L145.456 60.3977L135.685 62.5242L140.372 84.0633L150.143 81.9367ZM135.644 60.6033L131.894 82.1424L141.746 83.8576L145.496 62.3186L135.644 60.6033ZM136.82 78H129.016V88H136.82V78ZM133.943 83.8494L139.826 49.7244L129.971 48.0256L124.088 82.1506L133.943 83.8494ZM134.898 53.875H142.562V43.875H134.898V53.875ZM137.677 49.9383L142.364 71.4773L152.136 69.3508L147.448 47.8117L137.677 49.9383ZM152.177 71.2665L155.903 49.7274L146.05 48.0226L142.323 69.5617L152.177 71.2665ZM150.977 53.875H158.781V43.875H150.977V53.875ZM178.047 76.6719L182.973 77.5294L183.992 71.6719H178.047V76.6719ZM176.945 83V88H181.15L181.871 83.8575L176.945 83ZM162.414 83L157.491 82.1248L156.447 88H162.414V83ZM163.539 76.6719V71.6719H159.35L158.616 75.7967L163.539 76.6719ZM171.086 48.875L176.012 49.731L177.03 43.875H171.086V48.875ZM165.156 83V88H169.362L170.082 83.856L165.156 83ZM157.375 83L152.448 82.1506L151.439 88H157.375V83ZM163.258 48.875V43.875H159.046L158.33 48.0256L163.258 48.875ZM178.633 62.4219L183.56 63.2714L184.569 57.4219H178.633V62.4219ZM177.578 68.5391V73.5391H181.79L182.505 69.3886L177.578 68.5391ZM164.945 68.5391L160.021 67.6712L158.987 73.5391H164.945V68.5391ZM166.023 62.4219V57.4219H161.828L161.099 61.554L166.023 62.4219ZM182.945 48.875L187.872 49.7294L188.887 43.875H182.945V48.875ZM181.844 55.2266V60.2266H186.051L186.77 56.081L181.844 55.2266ZM167.219 55.2266L162.295 54.3545L161.255 60.2266H167.219V55.2266ZM168.344 48.875V43.875H164.152L163.42 48.003L168.344 48.875ZM173.121 75.8144L172.019 82.1425L181.871 83.8575L182.973 77.5294L173.121 75.8144ZM176.945 78H162.414V88H176.945V78ZM167.337 83.8752L168.462 77.547L158.616 75.7967L157.491 82.1248L167.337 83.8752ZM163.539 81.6719H178.047V71.6719H163.539V81.6719ZM166.16 48.019L160.23 82.144L170.082 83.856L176.012 49.731L166.16 48.019ZM165.156 78H157.375V88H165.156V78ZM162.302 83.8494L168.185 49.7244L158.33 48.0256L152.448 82.1506L162.302 83.8494ZM163.258 53.875H171.086V43.875H163.258V53.875ZM173.706 61.5723L172.651 67.6895L182.505 69.3886L183.56 63.2714L173.706 61.5723ZM177.578 63.5391H164.945V73.5391H177.578V63.5391ZM169.869 69.4069L170.948 63.2897L161.099 61.554L160.021 67.6712L169.869 69.4069ZM166.023 67.4219H178.633V57.4219H166.023V67.4219ZM178.019 48.0206L176.917 54.3722L186.77 56.081L187.872 49.7294L178.019 48.0206ZM181.844 50.2266H167.219V60.2266H181.844V50.2266ZM172.142 56.0986L173.267 49.747L163.42 48.003L162.295 54.3545L172.142 56.0986ZM168.344 53.875H182.945V43.875H168.344V53.875Z" fill="#C4C786" mask="url(#path-1-outside-1_1712_2964)"/>
</svg>
